<?xml version="1.0" encoding="UTF-8" standalone="no"?>
<!-- Created with Inkscape (http://www.inkscape.org/) -->
<svg
   xmlns:dc="http://purl.org/dc/elements/1.1/"
   xmlns:cc="http://creativecommons.org/ns#"
   xmlns:rdf="http://www.w3.org/1999/02/22-rdf-syntax-ns#"
   xmlns:svg="http://www.w3.org/2000/svg"
   xmlns="http://www.w3.org/2000/svg"
   xmlns:sodipodi="http://sodipodi.sourceforge.net/DTD/sodipodi-0.dtd"
   xmlns:inkscape="http://www.inkscape.org/namespaces/inkscape"
   width="856.3399"
   height="360.51437"
   id="svg2046"
   sodipodi:version="0.32"
   inkscape:version="0.46"
   version="1.0"
   sodipodi:docbase="/home/pat/0-travail"
   sodipodi:docname="Caesar3.svg"
   inkscape:output_extension="org.inkscape.output.svg.inkscape"
   inkscape:export-filename="/home/quentin/tfe/texte/images/chiffrecesar.png"
   inkscape:export-xdpi="90"
   inkscape:export-ydpi="90">
  <defs
     id="defs2048">
    <inkscape:perspective
       sodipodi:type="inkscape:persp3d"
       inkscape:vp_x="0 : 180.25719 : 1"
       inkscape:vp_y="0 : 1000 : 0"
       inkscape:vp_z="856.3399 : 180.25719 : 1"
       inkscape:persp3d-origin="428.16995 : 120.17146 : 1"
       id="perspective68" />
  </defs>
  <sodipodi:namedview
     id="base"
     pagecolor="white"
     bordercolor="#666666"
     borderopacity="1.0"
     inkscape:pageopacity="1"
     inkscape:pageshadow="2"
     inkscape:zoom="2.1136466"
     inkscape:cx="446.25835"
     inkscape:cy="192.01676"
     inkscape:document-units="px"
     inkscape:current-layer="g2052"
     inkscape:showpageshadow="false"
     inkscape:window-width="1278"
     inkscape:window-height="1006"
     inkscape:window-x="1"
     inkscape:window-y="17"
     showgrid="false" />
  <metadata
     id="metadata2051">
    <rdf:RDF>
      <cc:Work
         rdf:about="">
        <dc:format>image/svg+xml</dc:format>
        <dc:type
           rdf:resource="http://purl.org/dc/dcmitype/StillImage" />
      </cc:Work>
    </rdf:RDF>
  </metadata>
  <g
     inkscape:label="Calque 1"
     inkscape:groupmode="layer"
     id="layer1"
     transform="translate(90.55398,-272.4594)">
    <g
       id="g2052">
      <rect
         ry="1.1754904e-39"
         rx="1.1754904e-39"
         y="272.45935"
         x="-90.553978"
         height="360.51437"
         width="856.3399"
         id="rect1928"
         style="color:black;fill:white;fill-opacity:1;fill-rule:nonzero;stroke:none;stroke-width:1;stroke-linecap:butt;stroke-linejoin:miter;marker:none;marker-start:none;marker-mid:none;marker-end:none;stroke-miterlimit:2.29999995;stroke-dasharray:none;stroke-dashoffset:0;stroke-opacity:1;visibility:visible;display:block" />
      <text
         id="text2008"
         y="346.0726"
         x="297.86099"
         style="font-size:47.99999619px;font-style:normal;font-weight:bold;fill:#000000;fill-opacity:1;stroke:none;stroke-width:1px;stroke-linecap:butt;stroke-linejoin:miter;stroke-opacity:1;font-family:Bitstream Vera Sans"
         xml:space="preserve"><tspan
           y="346.0726"
           x="297.86099"
           id="tspan2010"
           sodipodi:role="line" /></text>
      <polyline
         transform="matrix(35.43307,0,0,35.43307,-265.21933,98.031465)"
         id="polyline114"
         points="15.75,12.3323 16,12.8323 16.25,12.3323 "
         style="fill:none;fill-opacity:0;stroke:#bfbfbf;stroke-width:0.15000001" />
      <polyline
         transform="matrix(35.43307,0,0,35.43307,-265.21933,98.031465)"
         id="polyline118"
         points="13.75,12.3323 14,12.8323 14.25,12.3323 "
         style="fill:none;fill-opacity:0;stroke:#bfbfbf;stroke-width:0.15000001" />
      <polyline
         transform="matrix(35.43307,0,0,35.43307,-265.21933,98.031465)"
         id="polyline122"
         points="11.75,12.3323 12,12.8323 12.25,12.3323 "
         style="fill:none;fill-opacity:0;stroke:#bfbfbf;stroke-width:0.15000001" />
      <path
         id="path112"
         d="M 89.111365,346.06295 C 89.111365,452.36217 301.70979,487.79523 301.70979,546.77712"
         style="fill:none;fill-opacity:0;fill-rule:nonzero;stroke:#bfbfbf;stroke-width:4.99999952;stroke-linecap:butt;stroke-linejoin:miter;marker:none;marker-start:none;marker-mid:none;marker-end:none;stroke-miterlimit:4;stroke-dasharray:4.99999984, 4.99999984;stroke-dashoffset:0;stroke-opacity:1;visibility:visible;display:inline;overflow:visible" />
      <path
         id="path116"
         d="M 18.245225,346.06295 C 18.245225,452.36217 230.84365,487.79523 230.84365,546.77712"
         style="fill:none;fill-opacity:0;fill-rule:nonzero;stroke:#bfbfbf;stroke-width:4.99999952;stroke-linecap:butt;stroke-linejoin:miter;marker:none;marker-start:none;marker-mid:none;marker-end:none;stroke-miterlimit:4;stroke-dasharray:4.99999984, 4.99999984;stroke-dashoffset:0;stroke-opacity:1;visibility:visible;display:inline;overflow:visible" />
      <path
         id="path120"
         d="M -52.620915,346.06295 C -52.620915,452.36217 159.97751,487.79523 159.97751,546.77712"
         style="fill:none;fill-opacity:0;fill-rule:nonzero;stroke:#bfbfbf;stroke-width:4.99999952;stroke-linecap:butt;stroke-linejoin:miter;marker:none;marker-start:none;marker-mid:none;marker-end:none;stroke-miterlimit:4;stroke-dasharray:4.99999984, 4.99999984;stroke-dashoffset:0;stroke-opacity:1;visibility:visible;display:inline;overflow:visible" />
      <path
         id="path100"
         d="M 372.57592,346.06295 C 372.57592,452.36217 585.17435,487.79523 585.17435,546.77712"
         style="fill:none;fill-opacity:0;fill-rule:nonzero;stroke:#bfbfbf;stroke-width:4.99999952;stroke-linecap:butt;stroke-linejoin:miter;marker:none;marker-start:none;marker-mid:none;marker-end:none;stroke-miterlimit:4;stroke-dasharray:4.99999984, 4.99999984;stroke-dashoffset:0;stroke-opacity:1;visibility:visible;display:inline;overflow:visible" />
      <path
         id="path104"
         d="M 514.30821,346.06295 C 514.30821,452.36217 726.90662,487.79523 726.90662,546.77712"
         style="fill:none;fill-opacity:0;fill-rule:nonzero;stroke:#bfbfbf;stroke-width:4.99999952;stroke-linecap:butt;stroke-linejoin:miter;marker:none;marker-start:none;marker-mid:none;marker-end:none;stroke-miterlimit:4;stroke-dasharray:4.99999984, 4.99999984;stroke-dashoffset:0;stroke-opacity:1;visibility:visible;display:inline;overflow:visible" />
      <path
         id="path108"
         d="M 443.44207,346.06295 C 443.44207,452.36217 656.04048,487.79523 656.04048,546.77712"
         style="fill:none;fill-opacity:0;fill-rule:nonzero;stroke:#bfbfbf;stroke-width:4.99999952;stroke-linecap:butt;stroke-linejoin:miter;marker:none;marker-start:none;marker-mid:none;marker-end:none;stroke-miterlimit:4;stroke-dasharray:4.99999984, 4.99999984;stroke-dashoffset:0;stroke-opacity:1;visibility:visible;display:inline;overflow:visible" />
      <rect
         id="rect6"
         ry="4.1651234e-38"
         rx="4.1651234e-38"
         height="70.866142"
         width="70.866142"
         y="558.66138"
         x="549.74127"
         style="fill:none;fill-opacity:0;fill-rule:nonzero;stroke:#bfbfbf;stroke-width:4.99999952;stroke-linecap:butt;stroke-linejoin:miter;marker:none;marker-start:none;marker-mid:none;marker-end:none;stroke-miterlimit:4;stroke-dasharray:4.99999984, 4.99999984;stroke-dashoffset:0;stroke-opacity:1;visibility:visible;display:inline;overflow:visible" />
      <rect
         id="rect10"
         ry="4.1651234e-38"
         rx="4.1651234e-38"
         height="70.866142"
         width="70.866142"
         y="275.19681"
         x="-88.053986"
         style="fill:none;fill-opacity:0;stroke:#bfbfbf;stroke-width:4.99999952;stroke-miterlimit:4;stroke-dasharray:4.99999984, 4.99999984;stroke-dashoffset:0" />
      <rect
         id="rect12"
         ry="4.1651234e-38"
         rx="4.1651234e-38"
         height="70.866142"
         width="70.866142"
         y="275.19681"
         x="-17.187845"
         style="fill:none;fill-opacity:0;fill-rule:nonzero;stroke:#bfbfbf;stroke-width:4.99999952;stroke-linecap:butt;stroke-linejoin:miter;marker:none;marker-start:none;marker-mid:none;marker-end:none;stroke-miterlimit:4;stroke-dasharray:4.99999984, 4.99999984;stroke-dashoffset:0;stroke-opacity:1;visibility:visible;display:inline;overflow:visible" />
      <rect
         id="rect16"
         ry="4.1651234e-38"
         rx="4.1651234e-38"
         height="70.866142"
         width="70.866142"
         y="275.19681"
         x="53.678295"
         style="fill:none;fill-opacity:0;fill-rule:nonzero;stroke:#bfbfbf;stroke-width:5;stroke-linecap:butt;stroke-linejoin:miter;marker:none;marker-start:none;marker-mid:none;marker-end:none;stroke-miterlimit:4;stroke-dasharray:5, 5;stroke-dashoffset:0;stroke-opacity:1;visibility:visible;display:inline;overflow:visible" />
      <rect
         id="rect22"
         ry="4.1651234e-38"
         rx="4.1651234e-38"
         height="70.866142"
         width="70.866142"
         y="275.19681"
         x="124.54443"
         style="fill:#c2da37;fill-opacity:1;stroke:#000000;stroke-width:4.99999952000000025;stroke-miterlimit:4;stroke-dasharray:none" />
      <rect
         id="rect26"
         ry="4.1651234e-38"
         rx="4.1651234e-38"
         height="70.866142"
         width="70.866142"
         y="275.19681"
         x="195.41057"
         style="fill:#add8e6;fill-opacity:1;fill-rule:nonzero;stroke:#000000;stroke-width:4.99999952;stroke-linecap:butt;stroke-linejoin:miter;marker:none;marker-start:none;marker-mid:none;marker-end:none;stroke-miterlimit:4;stroke-dasharray:none;stroke-dashoffset:0;stroke-opacity:1;visibility:visible;display:inline;overflow:visible" />
      <rect
         id="rect34"
         ry="4.1651234e-38"
         rx="4.1651234e-38"
         height="70.866142"
         width="70.866142"
         y="275.19681"
         x="337.14285"
         style="fill:#ffffff;fill-opacity:1;fill-rule:nonzero;stroke:#bfbfbf;stroke-width:5;stroke-linecap:butt;stroke-linejoin:miter;marker:none;marker-start:none;marker-mid:none;marker-end:none;stroke-miterlimit:4;stroke-dasharray:5,5;stroke-dashoffset:0;stroke-opacity:1;visibility:visible;display:inline;overflow:visible" />
      <rect
         id="rect30"
         ry="4.1651234e-38"
         rx="4.1651234e-38"
         height="70.866142"
         width="70.866142"
         y="275.19681"
         x="266.2767"
         style="fill:#ea9090;fill-opacity:1;fill-rule:nonzero;stroke:#000000;stroke-width:4.99999952000000025;stroke-linecap:butt;stroke-linejoin:miter;marker:none;marker-start:none;marker-mid:none;marker-end:none;stroke-miterlimit:4;stroke-dasharray:none;stroke-dashoffset:0;stroke-opacity:1;visibility:visible;display:inline;overflow:visible" />
      <rect
         id="rect38"
         ry="4.1651234e-38"
         rx="4.1651234e-38"
         height="70.866142"
         width="70.866142"
         y="275.19681"
         x="408.009"
         style="fill:#ffffff;fill-opacity:1;fill-rule:nonzero;stroke:#bfbfbf;stroke-width:5;stroke-linecap:butt;stroke-linejoin:miter;marker:none;marker-start:none;marker-mid:none;marker-end:none;stroke-miterlimit:4;stroke-dasharray:5, 5;stroke-dashoffset:0;stroke-opacity:1;visibility:visible;display:inline;overflow:visible" />
      <rect
         id="rect42"
         ry="4.1651234e-38"
         rx="4.1651234e-38"
         height="70.866142"
         width="70.866142"
         y="275.19681"
         x="481.55148"
         style="fill:#ffffff;fill-opacity:1;fill-rule:nonzero;stroke:#bfbfbf;stroke-width:4.99999952000000025;stroke-linecap:butt;stroke-linejoin:miter;marker:none;marker-start:none;marker-mid:none;marker-end:none;stroke-miterlimit:4;stroke-dasharray:4.99999952000000025, 4.99999952000000025;stroke-dashoffset:0;stroke-opacity:1;visibility:visible;display:inline;overflow:visible" />
      <line
         id="line44"
         y2="310.62988"
         x2="602.89087"
         y1="310.62988"
         x1="567.45782"
         style="fill:none;fill-opacity:0;fill-rule:nonzero;stroke:#bfbfbf;stroke-width:4.99999952;stroke-linecap:butt;stroke-linejoin:miter;marker:none;marker-start:none;marker-mid:none;marker-end:none;stroke-miterlimit:4;stroke-dasharray:4.99999984, 4.99999984;stroke-dashoffset:0;stroke-opacity:1;visibility:visible;display:inline;overflow:visible" />
      <rect
         id="rect52"
         ry="4.1651234e-38"
         rx="4.1651234e-38"
         height="70.866142"
         width="70.866142"
         y="558.66138"
         x="124.54443"
         style="fill:#ffffff;fill-opacity:1;fill-rule:nonzero;stroke:#bfbfbf;stroke-width:5;stroke-linecap:butt;stroke-linejoin:miter;marker:none;marker-start:none;marker-mid:none;marker-end:none;stroke-miterlimit:4;stroke-dasharray:5, 5;stroke-dashoffset:0;stroke-opacity:1;visibility:visible;display:inline;overflow:visible" />
      <rect
         id="rect56"
         ry="4.1651234e-38"
         rx="4.1651234e-38"
         height="70.866142"
         width="70.866142"
         y="558.66138"
         x="195.41057"
         style="fill:#ffffff;fill-opacity:1;fill-rule:nonzero;stroke:#bfbfbf;stroke-width:5;stroke-linecap:butt;stroke-linejoin:miter;marker:none;marker-start:none;marker-mid:none;marker-end:none;stroke-miterlimit:4;stroke-dasharray:5,5;stroke-dashoffset:0;stroke-opacity:1;visibility:visible;display:inline;overflow:visible" />
      <rect
         id="rect60"
         ry="4.1651234e-38"
         rx="4.1651234e-38"
         height="70.866142"
         width="70.866142"
         y="558.66138"
         x="266.2767"
         style="fill:#ffffff;fill-opacity:1;fill-rule:nonzero;stroke:#bfbfbf;stroke-width:4.99999952;stroke-linecap:butt;stroke-linejoin:miter;marker:none;marker-start:none;marker-mid:none;marker-end:none;stroke-miterlimit:4;stroke-dasharray:4.99999952,4.99999952;stroke-dashoffset:0;stroke-opacity:1;visibility:visible;display:inline;overflow:visible" />
      <rect
         id="rect64"
         ry="4.1651234e-38"
         rx="4.1651234e-38"
         height="70.866142"
         width="70.866142"
         y="558.66138"
         x="337.14285"
         style="fill:#c2da37;fill-opacity:1;fill-rule:nonzero;stroke:#000000;stroke-width:4.99999952000000025;stroke-linecap:butt;stroke-linejoin:miter;marker:none;marker-start:none;marker-mid:none;marker-end:none;stroke-miterlimit:4;stroke-dasharray:none;stroke-dashoffset:0;stroke-opacity:1;visibility:visible;display:inline;overflow:visible" />
      <rect
         id="rect68"
         ry="4.1651234e-38"
         rx="4.1651234e-38"
         height="70.866142"
         width="70.866142"
         y="558.66138"
         x="408.009"
         style="fill:#add8e6;fill-opacity:1;fill-rule:nonzero;stroke:#000000;stroke-width:4.99999952;stroke-linecap:butt;stroke-linejoin:miter;marker:none;marker-start:none;marker-mid:none;marker-end:none;stroke-miterlimit:4;stroke-dasharray:none;stroke-dashoffset:0;stroke-opacity:1;visibility:visible;display:inline;overflow:visible"
         inkscape:export-filename="/home/quentin/tfe/texte/images/chiffrecesar.png"
         inkscape:export-xdpi="90"
         inkscape:export-ydpi="90" />
      <rect
         id="rect72"
         ry="4.1651234e-38"
         rx="4.1651234e-38"
         height="70.866142"
         width="70.866142"
         y="558.66138"
         x="478.87512"
         style="fill:#ea9090;fill-opacity:1;fill-rule:nonzero;stroke:#000000;stroke-width:4.99999952000000025;stroke-linecap:butt;stroke-linejoin:miter;marker:none;marker-start:none;marker-mid:none;marker-end:none;stroke-miterlimit:4;stroke-dasharray:none;stroke-dashoffset:0;stroke-opacity:1;visibility:visible;display:inline;overflow:visible" />
      <path
         id="path76"
         d="M 159.97751,346.06295 C 159.97751,452.36217 372.57592,487.79523 372.57592,546.77712"
         style="fill:none;fill-opacity:0;stroke:#000000;stroke-width:5.31496048" />
      <polyline
         transform="matrix(35.43307,0,0,35.43307,-265.21933,98.031465)"
         id="polyline78"
         points="17.75,12.3323 18,12.8323 18.25,12.3323 "
         style="fill:none;fill-opacity:0;stroke:#000000;stroke-width:0.15000001" />
      <line
         id="line80"
         y2="594.09442"
         x2="106.8279"
         y1="594.09442"
         x1="71.394829"
         style="fill:none;fill-opacity:0;fill-rule:nonzero;stroke:#bfbfbf;stroke-width:4.99999952;stroke-linecap:butt;stroke-linejoin:miter;marker:none;marker-start:none;marker-mid:none;marker-end:none;stroke-miterlimit:4;stroke-dasharray:4.99999984, 4.99999984;stroke-dashoffset:0;stroke-opacity:1;visibility:visible;display:inline;overflow:visible" />
      <rect
         id="rect84"
         ry="4.1651234e-38"
         rx="4.1651234e-38"
         height="70.866142"
         width="70.866142"
         y="558.66138"
         x="620.60742"
         style="fill:none;fill-opacity:0;fill-rule:nonzero;stroke:#bfbfbf;stroke-width:4.99999952;stroke-linecap:butt;stroke-linejoin:miter;marker:none;marker-start:none;marker-mid:none;marker-end:none;stroke-miterlimit:4;stroke-dasharray:4.99999984, 4.99999984;stroke-dashoffset:0;stroke-opacity:1;visibility:visible;display:inline;overflow:visible" />
      <rect
         id="rect88"
         ry="4.1651234e-38"
         rx="4.1651234e-38"
         height="70.866142"
         width="70.866142"
         y="558.66138"
         x="691.47357"
         style="fill:none;fill-opacity:0;fill-rule:nonzero;stroke:#bfbfbf;stroke-width:4.99999952;stroke-linecap:butt;stroke-linejoin:miter;marker:none;marker-start:none;marker-mid:none;marker-end:none;stroke-miterlimit:4;stroke-dasharray:4.99999984, 4.99999984;stroke-dashoffset:0;stroke-opacity:1;visibility:visible;display:inline;overflow:visible" />
      <path
         id="path92"
         d="M 230.84365,346.06295 C 230.84365,452.36217 443.44207,487.79523 443.44207,546.77712"
         style="fill:none;fill-opacity:0;stroke:#000000;stroke-width:5.31496048" />
      <polyline
         transform="matrix(35.43307,0,0,35.43307,-265.21933,98.031465)"
         id="polyline94"
         points="19.75,12.3323 20,12.8323 20.25,12.3323 "
         style="fill:none;fill-opacity:0;stroke:#000000;stroke-width:0.15000001" />
      <path
         id="path96"
         d="M 301.70979,346.06295 C 301.70979,452.36217 514.30821,487.79523 514.30821,546.77712"
         style="fill:none;fill-opacity:0;stroke:#000000;stroke-width:5.31496048" />
      <polyline
         transform="matrix(35.43307,0,0,35.43307,-265.21933,98.031465)"
         id="polyline98"
         points="21.75,12.3323 22,12.8323 22.25,12.3323 "
         style="fill:none;fill-opacity:0;stroke:#000000;stroke-width:0.15000001" />
      <polyline
         transform="matrix(35.43307,0,0,35.43307,-265.21933,98.031465)"
         id="polyline102"
         points="23.75,12.3323 24,12.8323 24.25,12.3323 "
         style="fill:none;fill-opacity:0;stroke:#bfbfbf;stroke-width:0.15000001" />
      <polyline
         transform="matrix(35.43307,0,0,35.43307,-265.21933,98.031465)"
         id="polyline106"
         points="27.75,12.3323 28,12.8323 28.25,12.3323 "
         style="fill:none;fill-opacity:0;stroke:#bfbfbf;stroke-width:0.15000001" />
      <polyline
         transform="matrix(35.43307,0,0,35.43307,-265.21933,98.031465)"
         id="polyline110"
         points="25.75,12.3323 26,12.8323 26.25,12.3323 "
         style="fill:none;fill-opacity:0;stroke:#bfbfbf;stroke-width:0.15000001" />
      <path
         id="text1992"
         d="M 159.97751,297.79786 L 153.55562,315.21192 L 166.42282,315.21192 L 159.97751,297.79786 M 157.30564,293.1338 L 162.67283,293.1338 L 176.00874,328.12598 L 171.08687,328.12598 L 167.89938,319.14942 L 152.12593,319.14942 L 148.93844,328.12598 L 143.94627,328.12598 L 157.30564,293.1338"
         style="font-size:1.35466659px;font-style:normal;font-variant:normal;font-weight:normal;font-stretch:normal;text-indent:0;text-align:center;text-decoration:none;line-height:normal;letter-spacing:normal;word-spacing:normal;text-transform:none;direction:ltr;block-progression:tb;writing-mode:lr-tb;text-anchor:middle;fill:#000000;fill-opacity:1;fill-rule:nonzero;stroke:none;stroke-width:1px;stroke-linecap:butt;stroke-linejoin:miter;marker:none;marker-start:none;marker-mid:none;marker-end:none;stroke-miterlimit:4;stroke-dashoffset:0;stroke-opacity:1;visibility:visible;display:inline;overflow:visible;font-family:Bitstream Vera Sans" />
      <path
         id="text2012"
         d="M 362.60329,297.02442 L 362.60329,324.23535 L 368.32204,324.23535 C 373.15015,324.23536 376.68138,323.14161 378.91579,320.95411 C 381.16575,318.76661 382.29075,315.3135 382.29079,310.59473 C 382.29075,305.90726 381.16575,302.47757 378.91579,300.30567 C 376.68138,298.1182 373.15015,297.02445 368.32204,297.02442 L 362.60329,297.02442 M 357.8689,293.1338 L 367.59545,293.1338 C 374.3767,293.13383 379.35324,294.54789 382.52514,297.37598 C 385.697,300.18851 387.28292,304.59475 387.28295,310.59473 C 387.28292,316.62599 385.68917,321.05568 382.50172,323.88379 C 379.3142,326.71192 374.34545,328.12598 367.59545,328.12598 L 357.8689,328.12598 L 357.8689,293.1338"
         style="font-size:1.35466658999999989px;font-style:normal;font-variant:normal;font-weight:normal;font-stretch:normal;text-indent:0;text-align:center;text-decoration:none;line-height:normal;letter-spacing:normal;word-spacing:normal;text-transform:none;direction:ltr;block-progression:tb;writing-mode:lr-tb;text-anchor:middle;fill:#bfbfbf;fill-opacity:1;fill-rule:nonzero;stroke:none;stroke-width:1px;stroke-linecap:butt;stroke-linejoin:miter;marker:none;marker-start:none;marker-mid:none;marker-end:none;stroke-miterlimit:4;stroke-dashoffset:0;stroke-opacity:1;visibility:visible;display:inline;overflow:visible;font-family:Bitstream Vera Sans" />
      <path
         id="text2016"
         d="M 432.16864,293.1338 L 454.29362,293.1338 L 454.29362,297.11817 L 436.903,297.11817 L 436.903,307.47754 L 453.56706,307.47754 L 453.56706,311.46192 L 436.903,311.46192 L 436.903,324.14161 L 454.71549,324.14161 L 454.71549,328.12598 L 432.16864,328.12598 L 432.16864,293.1338"
         style="font-size:1.35466658999999989px;font-style:normal;font-variant:normal;font-weight:normal;font-stretch:normal;text-indent:0;text-align:center;text-decoration:none;line-height:normal;letter-spacing:normal;word-spacing:normal;text-transform:none;direction:ltr;block-progression:tb;writing-mode:lr-tb;text-anchor:middle;fill:#bfbfbf;fill-opacity:1;fill-rule:nonzero;stroke:none;stroke-width:1px;stroke-linecap:butt;stroke-linejoin:miter;marker:none;marker-start:none;marker-mid:none;marker-end:none;stroke-miterlimit:4;stroke-dashoffset:0;stroke-opacity:1;visibility:visible;display:inline;overflow:visible;font-family:Bitstream Vera Sans" />
      <path
         id="text2020"
         d="M 504.2535,293.1338 L 524.36287,293.1338 L 524.36287,297.11817 L 508.98789,297.11817 L 508.98789,307.43067 L 522.86288,307.43067 L 522.86288,311.41504 L 508.98789,311.41504 L 508.98789,328.12598 L 504.2535,328.12598 L 504.2535,293.1338"
         style="font-size:1.35466658999999989px;font-style:normal;font-variant:normal;font-weight:normal;font-stretch:normal;text-indent:0;text-align:center;text-decoration:none;line-height:normal;letter-spacing:normal;word-spacing:normal;text-transform:none;direction:ltr;block-progression:tb;writing-mode:lr-tb;text-anchor:middle;fill:#bfbfbf;fill-opacity:1;fill-rule:nonzero;stroke:none;stroke-width:1px;stroke-linecap:butt;stroke-linejoin:miter;marker:none;marker-start:none;marker-mid:none;marker-end:none;stroke-miterlimit:4;stroke-dashoffset:0;stroke-opacity:1;visibility:visible;display:inline;overflow:visible;font-family:Bitstream Vera Sans" />
      <path
         id="text2048"
         d="M 315.81916,295.80567 L 315.81916,300.79786 C 314.22538,299.31352 312.52226,298.20414 310.70978,297.46973 C 308.91287,296.73539 306.99881,296.36821 304.96757,296.36817 C 300.96757,296.36821 297.90509,297.59477 295.7801,300.04786 C 293.65507,302.48538 292.59257,306.01663 292.59257,310.64161 C 292.59257,315.251 293.65507,318.78224 295.7801,321.23536 C 297.90509,323.67286 300.96757,324.89161 304.96757,324.89161 C 306.99881,324.89161 308.91287,324.52442 310.70978,323.79005 C 312.52226,323.05568 314.22538,321.9463 315.81916,320.46192 L 315.81916,325.40723 C 314.16288,326.53224 312.40504,327.37598 310.54569,327.93848 C 308.70193,328.50098 306.74883,328.78223 304.68634,328.78223 C 299.38945,328.78223 295.21756,327.16505 292.17071,323.93067 C 289.12382,320.68068 287.60041,316.251 287.60041,310.64161 C 287.60041,305.01663 289.12382,300.58695 292.17071,297.35255 C 295.21756,294.10258 299.38945,292.47758 304.68634,292.47755 C 306.78004,292.47758 308.74881,292.75883 310.59257,293.3213 C 312.45192,293.86821 314.19413,294.69633 315.81916,295.80567"
         style="font-size:1.35466659px;font-style:normal;font-variant:normal;font-weight:normal;font-stretch:normal;text-indent:0;text-align:center;text-decoration:none;line-height:normal;letter-spacing:normal;word-spacing:normal;text-transform:none;direction:ltr;block-progression:tb;writing-mode:lr-tb;text-anchor:middle;fill:#000000;fill-opacity:1;fill-rule:nonzero;stroke:none;stroke-width:1px;stroke-linecap:butt;stroke-linejoin:miter;marker:none;marker-start:none;marker-mid:none;marker-end:none;stroke-miterlimit:4;stroke-dashoffset:0;stroke-opacity:1;visibility:visible;display:inline;overflow:visible;font-family:Bitstream Vera Sans" />
      <path
         id="text3041"
         d="M 159.97751,581.26239 L 153.55562,598.67647 L 166.42282,598.67647 L 159.97751,581.26239 M 157.30564,576.59834 L 162.67283,576.59834 L 176.00874,611.59052 L 171.08687,611.59052 L 167.89938,602.61397 L 152.12593,602.61397 L 148.93844,611.59052 L 143.94627,611.59052 L 157.30564,576.59834"
         style="font-size:1.35466658999999989px;font-style:normal;font-variant:normal;font-weight:normal;font-stretch:normal;text-indent:0;text-align:center;text-decoration:none;line-height:normal;letter-spacing:normal;word-spacing:normal;text-transform:none;direction:ltr;block-progression:tb;writing-mode:lr-tb;text-anchor:middle;fill:#bfbfbf;fill-opacity:1;fill-rule:nonzero;stroke:none;stroke-width:1px;stroke-linecap:butt;stroke-linejoin:miter;marker:none;marker-start:none;marker-mid:none;marker-end:none;stroke-miterlimit:4;stroke-dashoffset:0;stroke-opacity:1;visibility:visible;display:inline;overflow:visible;font-family:Bitstream Vera Sans" />
      <path
         id="text3045"
         d="M 223.30848,594.87957 L 223.30848,607.69989 L 230.90222,607.69989 C 233.44907,607.69989 235.33188,607.17648 236.55067,606.12957 C 237.78502,605.06711 238.40219,603.44991 238.40223,601.27804 C 238.40219,599.09054 237.78502,597.48117 236.55067,596.44989 C 235.33188,595.40302 233.44907,594.87961 230.90222,594.87957 L 223.30848,594.87957 M 223.30848,580.48896 L 223.30848,591.03583 L 230.31629,591.03583 C 232.62876,591.03586 234.34751,590.60617 235.47255,589.74677 C 236.61314,588.87179 237.18347,587.54369 237.18347,585.76239 C 237.18347,583.9968 236.61314,582.67649 235.47255,581.80147 C 234.34751,580.92649 232.62876,580.489 230.31629,580.48896 L 223.30848,580.48896 M 218.57409,576.59834 L 230.66786,576.59834 C 234.27722,576.59837 237.05846,577.34839 239.01161,578.84834 C 240.96471,580.34836 241.94125,582.48119 241.94128,585.24677 C 241.94125,587.38743 241.44125,589.09055 240.44129,590.35615 C 239.44127,591.62178 237.97253,592.41084 236.03505,592.72333 C 238.36314,593.22336 240.16782,594.27023 241.44912,595.86397 C 242.74597,597.44209 243.39439,599.41865 243.39443,601.79366 C 243.39439,604.91865 242.3319,607.3327 240.2069,609.03583 C 238.08188,610.73895 235.05844,611.59052 231.13661,611.59052 L 218.57409,611.59052 L 218.57409,576.59834"
         style="font-size:1.35466658999999989px;font-style:normal;font-variant:normal;font-weight:normal;font-stretch:normal;text-indent:0;text-align:center;text-decoration:none;line-height:normal;letter-spacing:normal;word-spacing:normal;text-transform:none;direction:ltr;block-progression:tb;writing-mode:lr-tb;text-anchor:middle;fill:#bfbfbf;fill-opacity:1;fill-rule:nonzero;stroke:none;stroke-width:1px;stroke-linecap:butt;stroke-linejoin:miter;marker:none;marker-start:none;marker-mid:none;marker-end:none;stroke-miterlimit:4;stroke-dashoffset:0;stroke-opacity:1;visibility:visible;display:inline;overflow:visible;font-family:Bitstream Vera Sans" />
      <path
         id="text3049"
         d="M 362.60329,580.48896 L 362.60329,607.69989 L 368.32204,607.69989 C 373.15015,607.69989 376.68138,606.60615 378.91579,604.41865 C 381.16575,602.23115 382.29075,598.77802 382.29079,594.05926 C 382.29075,589.37178 381.16575,585.94211 378.91579,583.77021 C 376.68138,581.58274 373.15015,580.489 368.32204,580.48896 L 362.60329,580.48896 M 357.8689,576.59834 L 367.59545,576.59834 C 374.3767,576.59837 379.35324,578.01244 382.52514,580.84053 C 385.697,583.65306 387.28292,588.05931 387.28295,594.05926 C 387.28292,600.09054 385.68917,604.52024 382.50172,607.34833 C 379.3142,610.17645 374.34545,611.59052 367.59545,611.59052 L 357.8689,611.59052 L 357.8689,576.59834"
         style="font-size:1.35466659px;font-style:normal;font-variant:normal;font-weight:normal;font-stretch:normal;text-indent:0;text-align:center;text-decoration:none;line-height:normal;letter-spacing:normal;word-spacing:normal;text-transform:none;direction:ltr;block-progression:tb;writing-mode:lr-tb;text-anchor:middle;fill:#000000;fill-opacity:1;fill-rule:nonzero;stroke:none;stroke-width:1px;stroke-linecap:butt;stroke-linejoin:miter;marker:none;marker-start:none;marker-mid:none;marker-end:none;stroke-miterlimit:4;stroke-dashoffset:0;stroke-opacity:1;visibility:visible;display:inline;overflow:visible;font-family:Bitstream Vera Sans" />
      <path
         id="text3057"
         d="M 504.2535,576.59834 L 524.36287,576.59834 L 524.36287,580.58272 L 508.98789,580.58272 L 508.98789,590.89523 L 522.86288,590.89523 L 522.86288,594.87957 L 508.98789,594.87957 L 508.98789,611.59052 L 504.2535,611.59052 L 504.2535,576.59834"
         style="font-size:1.35466659px;font-style:normal;font-variant:normal;font-weight:normal;font-stretch:normal;text-indent:0;text-align:center;text-decoration:none;line-height:normal;letter-spacing:normal;word-spacing:normal;text-transform:none;direction:ltr;block-progression:tb;writing-mode:lr-tb;text-anchor:middle;fill:#000000;fill-opacity:1;fill-rule:nonzero;stroke:none;stroke-width:1px;stroke-linecap:butt;stroke-linejoin:miter;marker:none;marker-start:none;marker-mid:none;marker-end:none;stroke-miterlimit:4;stroke-dashoffset:0;stroke-opacity:1;visibility:visible;display:inline;overflow:visible;font-family:Bitstream Vera Sans" />
      <path
         id="text3061"
         d="M 315.81916,579.27024 L 315.81916,584.26241 C 314.22538,582.77808 312.52226,581.66871 310.70978,580.93428 C 308.91287,580.19997 306.99881,579.83278 304.96757,579.83274 C 300.96757,579.83278 297.90509,581.05933 295.7801,583.51243 C 293.65507,585.94994 292.59257,589.4812 292.59257,594.10617 C 292.59257,598.71556 293.65507,602.24681 295.7801,604.69992 C 297.90509,607.13743 300.96757,608.35618 304.96757,608.35618 C 306.99881,608.35618 308.91287,607.98899 310.70978,607.25461 C 312.52226,606.52022 314.22538,605.41085 315.81916,603.92648 L 315.81916,608.87181 C 314.16288,609.99681 312.40504,610.84054 310.54569,611.40304 C 308.70193,611.96554 306.74883,612.24681 304.68634,612.24681 C 299.38945,612.24681 295.21756,610.62961 292.17071,607.39524 C 289.12382,604.14525 287.60041,599.71555 287.60041,594.10617 C 287.60041,588.48121 289.12382,584.05151 292.17071,580.81711 C 295.21756,577.56715 299.38945,575.94215 304.68634,575.94212 C 306.78004,575.94215 308.74881,576.22339 310.59257,576.78585 C 312.45192,577.33276 314.19413,578.1609 315.81916,579.27024"
         style="font-size:1.35466658999999989px;font-style:normal;font-variant:normal;font-weight:normal;font-stretch:normal;text-indent:0;text-align:center;text-decoration:none;line-height:normal;letter-spacing:normal;word-spacing:normal;text-transform:none;direction:ltr;block-progression:tb;writing-mode:lr-tb;text-anchor:middle;fill:#bfbfbf;fill-opacity:1;fill-rule:nonzero;stroke:none;stroke-width:1px;stroke-linecap:butt;stroke-linejoin:miter;marker:none;marker-start:none;marker-mid:none;marker-end:none;stroke-miterlimit:4;stroke-dashoffset:0;stroke-opacity:1;visibility:visible;display:inline;overflow:visible;font-family:Bitstream Vera Sans" />
      <path
         id="text3093"
         d="M -66.003734,293.1338 L -60.917795,293.1338 L -52.222484,306.14161 L -43.480296,293.1338 L -38.39436,293.1338 L -49.64436,309.93848 L -37.644359,328.12598 L -42.730298,328.12598 L -52.574048,313.24317 L -62.488107,328.12598 L -67.597482,328.12598 L -55.105294,309.44629 L -66.003734,293.1338"
         style="font-size:1.35466659px;font-style:normal;font-variant:normal;font-weight:normal;font-stretch:normal;text-indent:0;text-align:center;text-decoration:none;line-height:normal;letter-spacing:normal;word-spacing:normal;text-transform:none;direction:ltr;block-progression:tb;writing-mode:lr-tb;text-anchor:middle;fill:#bfbfbf;fill-opacity:1;fill-rule:nonzero;stroke:none;stroke-width:1px;stroke-linecap:butt;stroke-linejoin:miter;marker:none;marker-start:none;marker-mid:none;marker-end:none;stroke-miterlimit:4;stroke-dashoffset:0;stroke-opacity:1;visibility:visible;display:inline;overflow:visible;font-family:Bitstream Vera Sans" />
      <path
         id="text3097"
         d="M 3.4913269,293.1338 L 8.5772622,293.1338 L 18.280389,307.52442 L 27.913198,293.1338 L 32.999137,293.1338 L 20.624138,311.46192 L 20.624138,328.12598 L 15.866327,328.12598 L 15.866327,311.46192 L 3.4913269,293.1338"
         style="font-size:1.35466659px;font-style:normal;font-variant:normal;font-weight:normal;font-stretch:normal;text-indent:0;text-align:center;text-decoration:none;line-height:normal;letter-spacing:normal;word-spacing:normal;text-transform:none;direction:ltr;block-progression:tb;writing-mode:lr-tb;text-anchor:middle;fill:#bfbfbf;fill-opacity:1;fill-rule:nonzero;stroke:none;stroke-width:1px;stroke-linecap:butt;stroke-linejoin:miter;marker:none;marker-start:none;marker-mid:none;marker-end:none;stroke-miterlimit:4;stroke-dashoffset:0;stroke-opacity:1;visibility:visible;display:inline;overflow:visible;font-family:Bitstream Vera Sans" />
      <path
         id="text3101"
         d="M 75.365279,293.1338 L 102.85747,293.1338 L 102.85747,296.74317 L 80.732468,324.14161 L 103.39653,324.14161 L 103.39653,328.12598 L 74.826218,328.12598 L 74.826218,324.5166 L 96.951215,297.11817 L 75.365279,297.11817 L 75.365279,293.1338"
         style="font-size:1.35466659px;font-style:normal;font-variant:normal;font-weight:normal;font-stretch:normal;text-indent:0;text-align:center;text-decoration:none;line-height:normal;letter-spacing:normal;word-spacing:normal;text-transform:none;direction:ltr;block-progression:tb;writing-mode:lr-tb;text-anchor:middle;fill:#bfbfbf;fill-opacity:1;fill-rule:nonzero;stroke:none;stroke-width:1px;stroke-linecap:butt;stroke-linejoin:miter;marker:none;marker-start:none;marker-mid:none;marker-end:none;stroke-miterlimit:4;stroke-dashoffset:0;stroke-opacity:1;visibility:visible;display:inline;overflow:visible;font-family:Bitstream Vera Sans" />
      <path
         id="text4875"
         d="M 595.76805,606.57493 L 595.76805,597.17648 L 588.03369,597.17648 L 588.03369,593.28586 L 600.45557,593.28586 L 600.45557,608.30931 C 598.6274,609.60616 596.61179,610.59056 594.4087,611.26241 C 592.20554,611.91866 589.85399,612.24681 587.35401,612.24681 C 581.88523,612.24681 577.604,610.65303 574.51027,607.46554 C 571.43212,604.26243 569.89305,599.8093 569.89305,594.10617 C 569.89305,588.38745 571.43212,583.93433 574.51027,580.74681 C 577.604,577.54369 581.88523,575.94215 587.35401,575.94212 C 589.63523,575.94215 591.7993,576.22339 593.8462,576.78585 C 595.90865,577.34839 597.80708,578.17653 599.5415,579.27024 L 599.5415,584.30928 C 597.79146,582.82496 595.93211,581.70775 593.96338,580.95774 C 591.99461,580.20776 589.92429,579.83278 587.75246,579.83274 C 583.47118,579.83278 580.25244,581.02808 578.0962,583.41867 C 575.95555,585.80931 574.88525,589.37182 574.88525,594.10617 C 574.88525,598.82494 575.95555,602.37962 578.0962,604.77022 C 580.25244,607.16085 583.47118,608.35618 587.75246,608.35618 C 589.42429,608.35618 590.91649,608.21555 592.229,607.93428 C 593.54147,607.63742 594.72115,607.18431 595.76805,606.57493"
         style="font-size:1.35466659px;font-style:normal;font-variant:normal;font-weight:normal;font-stretch:normal;text-indent:0;text-align:center;text-decoration:none;line-height:normal;letter-spacing:normal;word-spacing:normal;text-transform:none;direction:ltr;block-progression:tb;writing-mode:lr-tb;text-anchor:middle;fill:#bfbfbf;fill-opacity:1;fill-rule:nonzero;stroke:none;stroke-width:1px;stroke-linecap:butt;stroke-linejoin:miter;marker:none;marker-start:none;marker-mid:none;marker-end:none;stroke-miterlimit:4;stroke-dashoffset:0;stroke-opacity:1;visibility:visible;display:inline;overflow:visible;font-family:Bitstream Vera Sans" />
      <path
         id="text4879"
         d="M 642.70454,576.59834 L 647.43893,576.59834 L 647.43893,590.94207 L 664.64204,590.94207 L 664.64204,576.59834 L 669.37643,576.59834 L 669.37643,611.59052 L 664.64204,611.59052 L 664.64204,594.92645 L 647.43893,594.92645 L 647.43893,611.59052 L 642.70454,611.59052 L 642.70454,576.59834"
         style="font-size:1.35466659px;font-style:normal;font-variant:normal;font-weight:normal;font-stretch:normal;text-indent:0;text-align:center;text-decoration:none;line-height:normal;letter-spacing:normal;word-spacing:normal;text-transform:none;direction:ltr;block-progression:tb;writing-mode:lr-tb;text-anchor:middle;fill:#bfbfbf;fill-opacity:1;fill-rule:nonzero;stroke:none;stroke-width:1px;stroke-linecap:butt;stroke-linejoin:miter;marker:none;marker-start:none;marker-mid:none;marker-end:none;stroke-miterlimit:4;stroke-dashoffset:0;stroke-opacity:1;visibility:visible;display:inline;overflow:visible;font-family:Bitstream Vera Sans" />
      <path
         id="text4883"
         d="M 724.53945,576.59834 L 729.2738,576.59834 L 729.2738,611.59052 L 724.53945,611.59052 L 724.53945,576.59834"
         style="font-size:1.35466659px;font-style:normal;font-variant:normal;font-weight:normal;font-stretch:normal;text-indent:0;text-align:center;text-decoration:none;line-height:normal;letter-spacing:normal;word-spacing:normal;text-transform:none;direction:ltr;block-progression:tb;writing-mode:lr-tb;text-anchor:middle;fill:#bfbfbf;fill-opacity:1;fill-rule:nonzero;stroke:none;stroke-width:1px;stroke-linecap:butt;stroke-linejoin:miter;marker:none;marker-start:none;marker-mid:none;marker-end:none;stroke-miterlimit:4;stroke-dashoffset:0;stroke-opacity:1;visibility:visible;display:inline;overflow:visible;font-family:Bitstream Vera Sans" />
      <text
         xml:space="preserve"
         style="font-size:28px;font-style:normal;font-weight:normal;fill:#000000;fill-opacity:1;stroke:none;stroke-width:1px;stroke-linecap:butt;stroke-linejoin:miter;stroke-opacity:1;font-family:Bitstream Vera Sans"
         x="266.17551"
         y="466.43695"
         id="text3273"><tspan
           sodipodi:role="line"
           id="tspan3275"
           x="266.17551"
           y="466.43695">+3</tspan></text>
      <text
         id="text3277"
         y="466.43695"
         x="339.9816"
         style="font-size:28px;font-style:normal;font-weight:normal;fill:#000000;fill-opacity:1;stroke:none;stroke-width:1px;stroke-linecap:butt;stroke-linejoin:miter;stroke-opacity:1;font-family:Bitstream Vera Sans"
         xml:space="preserve"><tspan
           y="466.43695"
           x="339.9816"
           id="tspan3279"
           sodipodi:role="line">+3</tspan></text>
      <text
         xml:space="preserve"
         style="font-size:28px;font-style:normal;font-weight:normal;fill:#000000;fill-opacity:1;stroke:none;stroke-width:1px;stroke-linecap:butt;stroke-linejoin:miter;stroke-opacity:1;font-family:Bitstream Vera Sans"
         x="412.84146"
         y="466.43695"
         id="text3281"><tspan
           sodipodi:role="line"
           id="tspan3283"
           x="412.84146"
           y="466.43695">+3</tspan></text>
      <path
         id="path3289"
         d="M 223.30848,311.95621 L 223.30848,324.77653 L 230.90222,324.77653 C 233.44907,324.77653 235.33188,324.25312 236.55067,323.20621 C 237.78502,322.14375 238.40219,320.52655 238.40223,318.35468 C 238.40219,316.16718 237.78502,314.55781 236.55067,313.52653 C 235.33188,312.47966 233.44907,311.95625 230.90222,311.95621 L 223.30848,311.95621 M 223.30848,297.5656 L 223.30848,308.11247 L 230.31629,308.11247 C 232.62876,308.1125 234.34751,307.68281 235.47255,306.82341 C 236.61314,305.94843 237.18347,304.62033 237.18347,302.83903 C 237.18347,301.07344 236.61314,299.75313 235.47255,298.87811 C 234.34751,298.00313 232.62876,297.56564 230.31629,297.5656 L 223.30848,297.5656 M 218.57409,293.67498 L 230.66786,293.67498 C 234.27722,293.67501 237.05846,294.42503 239.01161,295.92498 C 240.96471,297.425 241.94125,299.55783 241.94128,302.32341 C 241.94125,304.46407 241.44125,306.16719 240.44129,307.43279 C 239.44127,308.69842 237.97253,309.48748 236.03505,309.79997 C 238.36314,310.3 240.16782,311.34687 241.44912,312.94061 C 242.74597,314.51873 243.39439,316.49529 243.39443,318.8703 C 243.39439,321.99529 242.3319,324.40934 240.2069,326.11247 C 238.08188,327.81559 235.05844,328.66716 231.13661,328.66716 L 218.57409,328.66716 L 218.57409,293.67498"
         style="font-size:1.35466659px;font-style:normal;font-variant:normal;font-weight:normal;font-stretch:normal;text-indent:0;text-align:center;text-decoration:none;line-height:normal;letter-spacing:normal;word-spacing:normal;text-transform:none;direction:ltr;block-progression:tb;writing-mode:lr-tb;text-anchor:middle;fill:#000000;fill-opacity:1;fill-rule:nonzero;stroke:none;stroke-width:1px;stroke-linecap:butt;stroke-linejoin:miter;marker:none;marker-start:none;marker-mid:none;marker-end:none;stroke-miterlimit:4;stroke-dashoffset:0;stroke-opacity:1;visibility:visible;display:inline;overflow:visible;font-family:Bitstream Vera Sans" />
      <path
         style="font-size:1.35466659px;font-style:normal;font-variant:normal;font-weight:normal;font-stretch:normal;text-indent:0;text-align:center;text-decoration:none;line-height:normal;letter-spacing:normal;word-spacing:normal;text-transform:none;direction:ltr;block-progression:tb;writing-mode:lr-tb;text-anchor:middle;fill:#000000;fill-opacity:1;fill-rule:nonzero;stroke:none;stroke-width:1px;stroke-linecap:butt;stroke-linejoin:miter;marker:none;marker-start:none;marker-mid:none;marker-end:none;stroke-miterlimit:4;stroke-dashoffset:0;stroke-opacity:1;visibility:visible;display:inline;overflow:visible;font-family:Bitstream Vera Sans"
         d="M 432.16864,577.94962 L 454.29362,577.94962 L 454.29362,581.93399 L 436.903,581.93399 L 436.903,592.29336 L 453.56706,592.29336 L 453.56706,596.27774 L 436.903,596.27774 L 436.903,608.95743 L 454.71549,608.95743 L 454.71549,612.9418 L 432.16864,612.9418 L 432.16864,577.94962"
         id="path3291" />
    </g>
  </g>
</svg>
